<svg width="111" height="38" viewBox="0 0 111 38" fill="none" xmlns="http://www.w3.org/2000/svg">
    <g clip-path="url(#clip0_1090_32263)">
        <path d="M25.8737 21.6407C27.5889 20.0425 28.6561 17.7974 28.6561 15.311C28.6561 12.1165 26.8944 9.32023 24.2603 7.78264L13.7713 1.2642C11.9222 0.180761 9.64124 -0.281739 7.23731 0.175194C3.00858 0.978929 0.00109863 4.63493 0.00109863 8.80607V24.0928C0.00109863 24.3031 0.232545 24.4372 0.424144 24.3385L6.61116 21.1416C6.79858 21.0448 6.91553 20.8559 6.91553 20.6503V8.78519C6.91553 8.24959 7.1267 7.71401 7.54888 7.30538C8.3114 6.56735 9.46934 6.50819 10.3833 7.07386L25.4602 16.4714L25.4604 16.4712C26.3573 17.0772 26.9439 18.0835 26.9439 19.2224C26.9437 20.174 26.5316 21.0304 25.8737 21.6407Z" fill="#A980FF"/>
        <path d="M20.7501 13.5389L20.5941 13.4414C20.6184 13.4547 20.6744 13.4872 20.7501 13.5389Z" fill="#A980FF"/>
        <path d="M26.9439 19.2211C26.9439 20.1741 26.5319 21.0299 25.873 21.6397C25.3065 22.167 24.6703 22.6251 23.9781 22.9963L8.07045 31.2108C8.06439 31.2138 8.05833 31.2167 8.05227 31.2211C8.0447 31.2256 8.03713 31.23 8.02955 31.2329C8.02197 31.2359 8.01469 31.2408 8.00683 31.2447C3.48591 33.4946 1.34637 36.8087 0.19139 37.8664C0.10195 36.1639 0 33.0682 0 33.0682C0 29.7556 1.89492 26.8701 4.69262 25.3736L20.5533 17.1782C20.5533 17.1782 20.6942 17.1089 20.8774 16.9661C20.9108 16.941 20.9456 16.9116 20.9819 16.8806C21.0183 16.8497 21.0562 16.8158 21.091 16.7805C21.4121 16.4712 21.7529 15.9733 21.7408 15.2693C21.7257 14.3354 21.0804 13.7683 20.7608 13.543L25.4595 16.4712C26.3562 17.0765 26.9439 18.0826 26.9439 19.2211Z" fill="#A980FF"/>
        <path d="M7.68035 7.1875C7.63577 7.22509 7.59116 7.26408 7.54801 7.30584C7.12512 7.71376 6.91509 8.24978 6.91509 8.78579V20.6509C6.91509 20.8565 6.79801 21.0453 6.61059 21.1422L0.458236 24.3203C0.274259 24.4153 0.0607951 24.2576 0.105819 24.0605C1.09129 19.7476 5.64022 8.66925 7.68035 7.1875Z" fill="#A980FF"/>
        <path d="M20.7501 13.5389L20.5941 13.4414C20.6184 13.4547 20.6744 13.4872 20.7501 13.5389Z" fill="#A980FF"/>
        <path d="M26.9439 19.2211C26.9439 20.1741 26.5319 21.0299 25.873 21.6397C25.3065 22.167 24.6703 22.6251 23.9781 22.9963L8.07045 31.2108C8.06439 31.2138 8.05833 31.2167 8.05227 31.2211C8.0447 31.2256 8.03713 31.23 8.02955 31.2329C8.02197 31.2359 8.01469 31.2408 8.00683 31.2447C3.65632 33.4148 1.53571 36.5816 0.19139 37.8664C0.0704679 36.0739 0 33.0682 0 33.0682C0 29.7556 1.89492 26.8701 4.69262 25.3736L20.5533 17.1782C20.5533 17.1782 20.6942 17.1089 20.8774 16.9661C20.9108 16.9396 20.9456 16.9116 20.9819 16.8806C21.0183 16.8497 21.0546 16.8158 21.091 16.7805C21.4121 16.4712 21.7529 15.9733 21.7408 15.2693C21.7257 14.3354 21.0804 13.7683 20.7608 13.543L25.4595 16.4712C26.3562 17.0765 26.9439 18.0826 26.9439 19.2211Z" fill="#A980FF"/>
        <path d="M7.68088 7.1875C7.63629 7.22509 7.59171 7.26408 7.54855 7.30586C7.12565 7.71378 6.91564 8.24978 6.91564 8.78579V20.6663C6.91564 20.8623 6.80435 21.0424 6.62629 21.1343L0.435618 24.3322C0.262236 24.4218 0.0587939 24.2729 0.102583 24.0868C1.11111 19.8006 5.14845 9.25824 7.68088 7.1875Z" fill="#A980FF"/>
        <path d="M41.9954 13.8454C42.9078 13.8454 43.6926 13.7071 44.35 13.4303C45.0072 13.1538 45.5148 12.7506 45.8732 12.221C46.2311 11.6917 46.4103 11.0405 46.4103 10.2677C46.4103 9.51423 46.2264 8.87969 45.8584 8.3645C45.4906 7.84931 44.9705 7.45348 44.2985 7.17663C43.6264 6.90015 42.8194 6.76172 41.8777 6.76172H38.3899V16.3926L40.5384 16.3782V13.8454L41.9954 13.8454ZM41.9365 8.69367C42.4075 8.69367 42.8122 8.75089 43.1505 8.86533C43.4891 8.97978 43.7489 9.1539 43.9307 9.3877C44.1121 9.6215 44.2028 9.91497 44.2028 10.2677C44.2028 10.6398 44.1121 10.9474 43.9307 11.1907C43.7489 11.4341 43.4914 11.6154 43.1579 11.7346C42.8243 11.8539 42.417 11.9134 41.9365 11.9134H40.5384V8.69367L41.9365 8.69367Z" fill="#A980FF"/>
        <path d="M54.99 14.4606H50.369V6.76172H48.2205V14.6038C48.2205 15.1475 48.3677 15.5818 48.6619 15.9061C48.9563 16.2305 49.4418 16.3926 50.1189 16.3926H54.99V14.4606Z" fill="#A980FF"/>
        <path d="M58.455 14.4326L62.4594 14.4226L63.0395 16.395H65.2323L62.6128 8.1235C62.4458 7.59906 62.164 7.21021 61.7666 6.95734C61.3693 6.70465 60.93 6.57812 60.4495 6.57812C59.9883 6.57812 59.5565 6.70466 59.1545 6.95734C58.7521 7.21021 58.4676 7.59905 58.301 8.1235L55.6813 16.395H57.8741L58.455 14.4326ZM60.1405 8.73896C60.1994 8.54822 60.3071 8.45266 60.4643 8.45266C60.621 8.45266 60.7292 8.54822 60.788 8.73896L61.9116 12.5598H59.0094L60.1405 8.73896Z" fill="#A980FF"/>
        <path d="M68.1611 13.323C68.2188 13.3626 68.2786 13.3933 68.3377 13.427V16.3926H70.4862V13.4181C70.5403 13.3868 70.5954 13.3592 70.6482 13.323C71.0308 13.0607 71.3347 12.6767 71.5606 12.171L73.974 6.76172H71.6487L69.6326 11.5986C69.5934 11.6845 69.559 11.7538 69.5297 11.8061C69.5002 11.8586 69.461 11.8849 69.412 11.8849C69.3627 11.8849 69.326 11.8611 69.3015 11.8133C69.277 11.7655 69.2401 11.6941 69.1912 11.5986L67.1604 6.76172H64.8499L67.234 12.171C67.4693 12.6767 67.7783 13.0607 68.1611 13.323Z" fill="#A980FF"/>
        <path d="M74.8495 16.382C75.0505 16.4965 75.269 16.5539 75.5043 16.5539C75.7399 16.5539 75.9555 16.4965 76.152 16.382C76.3482 16.2676 76.5026 16.1152 76.6156 15.9241C76.7282 15.7333 76.7848 15.5235 76.7848 15.2944C76.7848 15.0561 76.7282 14.8436 76.6156 14.6576C76.5026 14.4716 76.3482 14.3213 76.152 14.2068C75.9555 14.0924 75.7399 14.0352 75.5043 14.0352C75.269 14.0352 75.0505 14.0924 74.8495 14.2068C74.6483 14.3213 74.4913 14.4716 74.3787 14.6576C74.2657 14.8436 74.2094 15.0561 74.2094 15.2944C74.2094 15.5235 74.2657 15.7333 74.3787 15.9241C74.4913 16.1152 74.6483 16.2676 74.8495 16.382Z" fill="#A980FF"/>
        <path d="M43.4304 21.9397C42.7975 21.7014 42.0639 21.582 41.2302 21.582H38.3899V31.1413H39.3318V28.1933H41.2597C42.0639 28.1933 42.7802 28.0766 43.4083 27.8428C44.0359 27.609 44.5341 27.2466 44.9019 26.7552C45.2699 26.2639 45.4539 25.6367 45.4539 24.8733C45.4539 24.1293 45.2748 23.5138 44.9167 23.0273C44.5584 22.5408 44.0631 22.1782 43.4304 21.9397ZM44.0484 26.2901C43.759 26.6527 43.3716 26.9175 42.8858 27.0844C42.4001 27.2514 41.8532 27.3348 41.245 27.3348H39.3318V22.4406H41.245C41.8826 22.4406 42.4444 22.5265 42.9299 22.6981C43.4156 22.8698 43.7957 23.1346 44.0705 23.4925C44.3451 23.8501 44.4826 24.3106 44.4826 24.8733C44.4826 25.4554 44.3377 25.9277 44.0484 26.2901Z" fill="#A980FF"/>
        <path d="M52.0612 21.7205C51.7864 21.5343 51.4627 21.4414 51.09 21.4414C50.7268 21.4414 50.4056 21.5343 50.1261 21.7205C49.8465 21.9065 49.6428 22.1951 49.5154 22.5862L46.7487 31.1438H47.7051L48.5516 28.4813L53.629 28.4687L54.4747 31.1438H55.4314L52.6647 22.5862C52.5371 22.1951 52.3359 21.9066 52.0612 21.7205ZM48.8198 27.6378L50.3394 22.8582C50.4571 22.4671 50.7074 22.2714 51.09 22.2714C51.4726 22.2714 51.7276 22.4671 51.8552 22.8582L53.3663 27.6378H48.8198Z" fill="#A980FF"/>
        <path d="M63.2899 28.0645C63.025 27.6546 62.7135 27.3373 62.3553 27.1129C62.2558 27.0507 62.1461 26.9991 62.0302 26.9541C62.3579 26.9002 62.6599 26.8151 62.9294 26.6908C63.405 26.4714 63.7756 26.1613 64.0405 25.7606C64.3054 25.3598 64.4378 24.8877 64.4378 24.3438C64.4378 23.7142 64.2807 23.1943 63.9669 22.7841C63.6527 22.3739 63.231 22.071 62.7012 21.8753C62.1714 21.6799 61.5777 21.582 60.9205 21.582H57.8153V31.1413H58.7425L58.749 27.3061H60.3025C60.8419 27.3061 61.2761 27.4062 61.6049 27.6066C61.9335 27.807 62.2155 28.0814 62.4511 28.4294C62.6865 28.7778 62.917 29.1761 63.1427 29.6245L63.9226 31.1413H64.9381L64.0993 29.4957C63.8245 28.9518 63.5548 28.4749 63.2899 28.0645ZM58.7504 26.4618L58.7572 22.4405H60.9205C61.3915 22.4405 61.8205 22.5099 62.2081 22.6481C62.5958 22.7865 62.9048 22.9986 63.1353 23.2849C63.3658 23.571 63.4812 23.9482 63.4812 24.4154C63.4812 24.8733 63.3683 25.2526 63.1427 25.553C62.917 25.8537 62.6103 26.0803 62.2229 26.2329C61.8352 26.3857 61.3915 26.4618 60.8912 26.4618H58.7504Z" fill="#A980FF"/>
        <path d="M69.1615 21.582H66.0415V22.4406H69.1615V31.1413H70.1032V22.4406H73.2379V21.582H70.1032H69.1615Z" fill="#A980FF"/>
        <path d="M82.127 30.1422C82.127 30.2662 82.105 30.3616 82.0608 30.4283C82.0167 30.4951 81.9504 30.5286 81.8621 30.5286C81.764 30.5286 81.6855 30.4976 81.6267 30.4355C81.5678 30.3735 81.4991 30.271 81.4206 30.1278L77.3442 22.157C77.2166 21.909 77.0645 21.7275 76.888 21.6131C76.7115 21.4986 76.4807 21.4414 76.1962 21.4414C75.9705 21.4414 75.767 21.4892 75.5856 21.5846C75.4038 21.6799 75.2642 21.8206 75.1661 22.0066C75.0681 22.1927 75.0189 22.4195 75.0189 22.6863V31.1438H75.9167V22.6291C75.9167 22.4767 75.9436 22.3622 75.9975 22.2858C76.0515 22.2095 76.1323 22.1711 76.2405 22.1711C76.3287 22.1711 76.3997 22.1998 76.4539 22.2571C76.5077 22.3143 76.5642 22.4051 76.6231 22.529L80.7143 30.5714C80.8417 30.8196 81.006 31.0007 81.2072 31.1151C81.4082 31.2298 81.6364 31.287 81.8916 31.287C82.0877 31.287 82.2717 31.239 82.4433 31.1438C82.615 31.0487 82.7549 30.9102 82.8628 30.7287C82.9706 30.5476 83.0248 30.3235 83.0248 30.0562V21.5846H82.127V30.1422Z" fill="#A980FF"/>
        <path d="M87.0269 26.7909H92.3249V25.9324H87.0269V22.4405H92.5899V21.582H87.0269C86.6739 21.582 86.4284 21.663 86.2911 21.8253C86.1536 21.9875 86.0852 22.2069 86.0852 22.4836V30.2397C86.0852 30.5166 86.1536 30.7359 86.2911 30.8981C86.4284 31.0603 86.6739 31.1413 87.0269 31.1413H92.7223V30.2826H87.0269V26.7909Z" fill="#A980FF"/>
        <path d="M100.757 28.0645C100.492 27.6546 100.181 27.3373 99.8229 27.1129C99.7233 27.0507 99.6136 26.9991 99.4977 26.9541C99.8254 26.9002 100.127 26.8151 100.397 26.6908C100.873 26.4714 101.243 26.1613 101.508 25.7606C101.773 25.3598 101.905 24.8877 101.905 24.3438C101.905 23.7142 101.748 23.1943 101.434 22.7841C101.12 22.3739 100.699 22.071 100.169 21.8753C99.6389 21.6799 99.0453 21.582 98.388 21.582H95.2828V31.1413H96.21L96.2165 27.3061H97.7701C98.3094 27.3061 98.7436 27.4062 99.0724 27.6066C99.401 27.807 99.683 28.0814 99.9186 28.4294C100.154 28.7778 100.385 29.1761 100.61 29.6245L101.39 31.1413H102.406L101.567 29.4957C101.292 28.9518 101.022 28.4749 100.757 28.0645ZM96.2179 26.4618L96.2247 22.4405H98.388C98.859 22.4405 99.288 22.5099 99.6757 22.6481C100.063 22.7865 100.372 22.9986 100.603 23.2849C100.833 23.571 100.949 23.9482 100.949 24.4154C100.949 24.8733 100.836 25.2526 100.61 25.553C100.385 25.8537 100.078 26.0803 99.6904 26.2329C99.3028 26.3857 98.859 26.4618 98.3587 26.4618H96.2179Z" fill="#A980FF"/>
        <path d="M110.72 27.3588C110.534 27.0489 110.288 26.7985 109.984 26.6075C109.68 26.4168 109.342 26.2665 108.969 26.1568C108.596 26.0472 108.223 25.9541 107.85 25.8776C107.419 25.7824 107.012 25.6774 106.629 25.5628C106.246 25.4484 105.937 25.2792 105.702 25.0548C105.466 24.8308 105.349 24.5088 105.349 24.0888C105.349 23.7551 105.449 23.4569 105.65 23.1944C105.851 22.9323 106.116 22.7272 106.445 22.5791C106.774 22.4313 107.129 22.3574 107.512 22.3574C108.091 22.3574 108.594 22.4815 109.02 22.7295C109.447 22.9776 109.768 23.3353 109.984 23.8027L110.764 23.402C110.49 22.7723 110.06 22.2955 109.477 21.971C108.893 21.6468 108.248 21.4844 107.541 21.4844C106.972 21.4844 106.45 21.5988 105.974 21.8279C105.498 22.0568 105.118 22.3693 104.834 22.7652C104.549 23.1612 104.407 23.612 104.407 24.1175C104.407 24.5948 104.5 24.9857 104.686 25.2911C104.873 25.5964 105.123 25.8444 105.437 26.0351C105.751 26.2261 106.094 26.3764 106.467 26.4859C106.84 26.5956 107.213 26.6887 107.586 26.765C108.017 26.8508 108.422 26.9488 108.8 27.0583C109.177 27.1681 109.481 27.3352 109.712 27.5592C109.942 27.7835 110.058 28.11 110.058 28.5395C110.058 28.9308 109.952 29.2645 109.741 29.5412C109.53 29.818 109.246 30.0276 108.888 30.1708C108.53 30.3139 108.125 30.3855 107.674 30.3855C107.046 30.3855 106.499 30.2567 106.033 29.9991C105.567 29.7415 105.226 29.3791 105.01 28.9115L104.215 29.2979C104.49 29.9276 104.941 30.412 105.569 30.7504C106.197 31.0892 106.899 31.2584 107.674 31.2584C108.302 31.2584 108.866 31.1439 109.366 30.9151C109.867 30.686 110.264 30.3689 110.558 29.9633C110.853 29.558 111 29.0832 111 28.5395C111 28.0625 110.906 27.6689 110.72 27.3588Z" fill="#A980FF"/>
    </g>
    <defs>
        <clipPath id="clip0_1090_32263">
            <rect width="111" height="38" fill="white"/>
        </clipPath>
    </defs>
</svg>
