<svg width="577" height="410" viewBox="0 0 577 410" fill="none" xmlns="http://www.w3.org/2000/svg">
    <path d="M572.232 57.2099H562.694V61.9771H548.388V66.7443H543.62V71.5122H534.083V76.2794H524.546V81.0466H515.009V85.8145H500.703V90.5817H495.934V95.3489H486.397V100.117H472.091V104.884H467.322V109.651H457.786V114.419H448.248V119.186H438.711V123.953H419.637V128.721H410.099V123.953H405.331V100.117H410.099V95.3489H414.868V90.5817H419.637V85.8145H424.405V76.2794H433.942V66.7443H443.48V61.9771H448.248V52.442H453.017V47.6748H462.554V38.1397H472.091V33.3725H476.86V28.6046H481.628V19.0702H491.165V14.3023H495.934V9.53512H491.165V0H476.86V9.53512H472.091V14.3023H467.322V19.0702H457.786V28.6046H453.017V33.3725H448.248V38.1397H438.711V47.6748H429.174V52.442H424.405V61.9771H419.637V66.7443H414.868V71.5122H410.099V76.2794H400.563V85.8145H391.025V90.5817H386.257V100.117H381.488V104.884H371.95V109.651H367.182V119.186H362.414V123.953H357.645V128.721H352.876V133.489H343.339V138.256H338.571V147.791H329.033V152.558H324.265V157.326H305.191V152.558H300.422V147.791H295.653V143.024H300.422V138.256H295.653V119.186H300.422V114.419H295.653V100.117H300.422V95.3489H295.653V85.8145H300.422V81.0466H295.653V61.9771H290.885V57.2099H286.116V61.9771H276.579V66.7443H281.348V71.5122H276.579V76.2794H281.348V81.0466H276.579V85.8145H281.348V95.3489H276.579V100.117H281.348V104.884H276.579V109.651H281.348V114.419H276.579V123.953H281.348V128.721H276.579V133.489H281.348V138.256H276.579V143.024H281.348V152.558H276.579V157.326H281.348V162.093H276.579V166.861H281.348V171.628H276.579V181.163H281.348V185.931H276.579V190.698H267.042V195.466H247.967V200.233H243.199V195.466H233.661V200.233H228.893V195.466H219.355V200.233H214.587V195.466H195.513V200.233H190.744V195.466H181.207V200.233H176.438V195.466H157.364V200.233H152.596V195.466H133.521V200.233H128.753V195.466H119.215V200.233H114.447V195.466H104.909V200.233H100.141V195.466H90.6036V200.233H81.0662V209.768H85.8353V214.535H181.207V219.302H190.744V228.837H195.513V233.605H190.744V243.14H185.976V247.907H176.438V252.675H171.67V257.442H157.364V262.209H152.596V266.977H143.058V271.744H128.753V276.511H119.215V281.279H114.447V286.047H104.909V290.815H90.6036V295.582H85.8353V300.349H76.2979V305.117H61.9921V309.884H57.2238V314.651H47.6864V319.419H38.1489V324.186H23.8432V328.953H19.0749V333.721H4.7691V343.256H0V352.791H19.0749V348.024H28.6115V343.256H38.1489V338.489H47.6864V333.721H57.2238V328.953H66.7604V324.186H71.5295V319.419H85.8353V314.651H90.6036V309.884H104.909V305.117H114.447V300.349H123.983V295.582H128.753V290.815H143.058V286.047H166.901V290.815H171.67V309.884H166.901V314.651H162.132V319.419H157.364V324.186H152.596V333.721H143.058V338.489H138.289V343.256H133.521V352.791H123.983V357.558H119.215V362.326H114.447V371.86H109.678V376.628H100.141V386.163H90.6036V390.931H85.8353V400.466H81.0662V405.233H85.8353V410H100.141V400.466H109.678V390.931H119.215V381.395H128.753V371.86H138.289V367.093H143.058V357.558H152.596V352.791H157.364V343.256H166.901V333.721H176.438V328.953H181.207V319.419H185.976V314.651H195.513V305.117H205.05V295.582H214.587V290.815H219.355V281.279H228.893V276.511H233.661V266.977H243.199V257.442H252.736V252.675H257.504V257.442H262.273V252.675H267.042V257.442H276.579V286.047H281.348V290.815H276.579V295.582H281.348V300.349H276.579V305.117H281.348V309.884H276.579V314.651H281.348V324.186H276.579V333.721H281.348V338.489H276.579V343.256H281.348V352.791H295.653V328.953H300.422V324.186H295.653V314.651H300.422V309.884H295.653V290.815H300.422V286.047H295.653V262.209H300.422V257.442H295.653V243.14H300.422V238.373H295.653V233.605H300.422V224.07H305.191V219.302H309.959V214.535H333.802V219.302H338.571V214.535H381.488V219.302H386.257V214.535H491.165V200.233H486.397V195.466H476.86V200.233H472.091V195.466H448.248V200.233H443.48V195.466H429.174V200.233H424.405V195.466H391.025V190.698H381.488V176.395H386.257V166.861H391.025V162.093H400.563V157.326H410.099V152.558H419.637V147.791H429.174V143.024H438.711V138.256H448.248V133.489H457.786V128.721H467.322V123.953H476.86V119.186H486.397V114.419H495.934V109.651H505.471V104.884H515.009V100.117H524.546V95.3489H534.083V90.5817H543.62V85.8145H553.158V81.0466H562.694V76.2794H572.232V71.5122H577V66.7443H572.232V57.2099Z" fill="url(#paint0_radial_837_12388)"/>
    <defs>
        <radialGradient id="paint0_radial_837_12388" cx="0" cy="0" r="1" gradientTransform="matrix(258.504 -266.285 451.399 -20.2661 431.033 202.908)" gradientUnits="userSpaceOnUse">
            <stop offset="0.0721154" stop-color="#500CBE"/>
            <stop offset="0.3125" stop-color="#FFF67A"/>
            <stop offset="0.625" stop-color="#7AFFF6"/>
            <stop offset="0.918269" stop-color="#0F5EF7"/>
        </radialGradient>
    </defs>
</svg>
